<svg xmlns="http://www.w3.org/2000/svg" xmlns:xlink="http://www.w3.org/1999/xlink" preserveAspectRatio="xMidYMid" width="61" height="29" viewBox="0 0 61 29">
  <defs>
    <style>
      .cls-1 {
        fill: #602fff;
        fill-rule: evenodd;
      }
    </style>
  </defs>
  <path d="M57.117,24.665 L55.672,24.665 L55.672,29.017 L51.280,29.017 L51.280,24.665 L8.828,24.665 L8.828,29.017 L4.437,29.017 L4.437,24.665 L2.973,24.665 C1.356,24.665 0.045,23.367 0.045,21.765 L0.045,10.162 C0.045,8.560 1.356,7.262 2.973,7.263 C4.590,7.263 5.900,8.560 5.900,10.162 L5.900,17.414 L54.208,17.414 L54.208,10.162 C54.208,8.560 55.519,7.262 57.136,7.262 C58.753,7.262 60.064,8.560 60.064,10.162 L60.064,21.765 C60.056,23.372 58.738,24.668 57.117,24.665 ZM8.828,4.361 C8.828,1.148 9.977,0.010 13.220,0.010 L46.889,0.010 C50.131,0.010 51.280,1.148 51.280,4.361 L51.280,14.513 L8.828,14.513 L8.828,4.361 Z" class="cls-1"/>
</svg>
