<svg xmlns="http://www.w3.org/2000/svg" xmlns:xlink="http://www.w3.org/1999/xlink" preserveAspectRatio="xMidYMid" width="45" height="54" viewBox="0 0 45 54">
  <defs>
    <style>
      .cls-1 {
        fill: #602fff;
        fill-rule: evenodd;
      }
    </style>
  </defs>
  <path d="M43.932,12.764 L35.146,27.686 C33.978,29.671 32.038,30.986 29.801,31.369 L29.801,38.565 C29.801,47.075 24.342,53.998 17.633,53.998 C10.923,53.998 5.464,47.075 5.464,38.565 L5.464,29.997 C2.349,29.373 -0.003,26.666 -0.003,23.429 C-0.003,19.732 3.063,16.726 6.832,16.726 C10.600,16.726 13.666,19.732 13.666,23.429 C13.666,26.666 11.314,29.373 8.199,29.997 L8.199,38.565 C8.199,45.596 12.431,51.315 17.633,51.315 C22.834,51.315 27.066,45.596 27.066,38.565 L27.066,31.369 C24.829,30.986 22.889,29.671 21.721,27.686 L12.936,12.764 C11.534,10.384 11.534,7.541 12.936,5.162 C14.174,3.057 16.281,1.707 18.689,1.422 C19.156,0.578 20.056,-0.002 21.104,-0.002 C22.627,-0.002 23.862,1.208 23.862,2.702 C23.862,4.195 22.627,5.407 21.104,5.407 C20.127,5.407 19.274,4.905 18.784,4.154 C17.332,4.399 16.062,5.216 15.304,6.503 C14.397,8.043 14.397,9.882 15.304,11.422 L24.089,26.345 C24.996,27.886 26.620,28.806 28.434,28.806 C30.248,28.805 31.872,27.886 32.778,26.345 L41.564,11.423 C42.470,9.882 42.470,8.043 41.563,6.503 C40.798,5.203 39.509,4.384 38.039,4.148 C37.549,4.902 36.695,5.407 35.715,5.407 C34.192,5.407 32.958,4.195 32.958,2.702 C32.958,1.208 34.192,-0.002 35.715,-0.002 C36.762,-0.002 37.662,0.576 38.129,1.419 C40.558,1.692 42.685,3.043 43.932,5.162 C45.333,7.541 45.333,10.384 43.932,12.764 Z" class="cls-1"/>
</svg>
