<svg xmlns="http://www.w3.org/2000/svg" xmlns:xlink="http://www.w3.org/1999/xlink" preserveAspectRatio="xMidYMid" width="46" height="31" viewBox="0 0 46 31">
  <defs>
    <style>
      .cls-1 {
        fill: #602fff;
        fill-rule: evenodd;
      }
    </style>
  </defs>
  <path d="M44.162,3.148 C43.155,3.148 42.339,3.944 42.339,4.927 L42.339,8.562 L18.463,8.562 C17.455,8.562 16.639,9.359 16.639,10.342 L16.639,14.634 L14.131,14.634 L14.131,10.342 C14.131,9.359 13.315,8.562 12.308,8.562 L3.642,8.562 L3.642,1.777 C3.642,0.794 2.826,-0.003 1.819,-0.003 C0.812,-0.003 -0.005,0.794 -0.005,1.777 L-0.005,10.342 L-0.005,16.413 L-0.005,29.219 C-0.005,30.201 0.812,30.998 1.819,30.998 C2.826,30.998 3.642,30.201 3.642,29.219 L3.642,26.008 L42.339,26.008 L42.339,29.219 C42.339,30.201 43.155,30.998 44.162,30.998 C45.169,30.998 45.985,30.201 45.985,29.219 L45.985,16.413 L45.985,10.342 L45.985,4.927 C45.985,3.944 45.169,3.148 44.162,3.148 ZM20.286,12.121 L42.339,12.121 L42.339,14.634 L20.286,14.634 L20.286,12.121 ZM10.485,12.121 L10.485,14.634 L3.642,14.634 L3.642,12.121 L10.485,12.121 ZM3.642,22.448 L3.642,18.193 L12.308,18.193 L18.462,18.193 L42.339,18.193 L42.339,22.448 L3.642,22.448 Z" class="cls-1"/>
</svg>
